<mxfile host="65bd71144e">
    <diagram id="HNLszHXtF_V6AQPru88v" name="Page-1">
        <mxGraphModel dx="1598" dy="1994" grid="0" gridSize="10" guides="1" tooltips="1" connect="1" arrows="1" fold="1" page="0" pageScale="1" pageWidth="850" pageHeight="1100" math="0" shadow="0">
            <root>
                <mxCell id="0"/>
                <mxCell id="1" parent="0"/>
                <mxCell id="19" style="edgeStyle=none;html=1;fontColor=#007FFF;" parent="1" source="2" target="18" edge="1">
                    <mxGeometry relative="1" as="geometry"/>
                </mxCell>
                <mxCell id="2" value="" style="sketch=0;points=[[0,0,0],[0.25,0,0],[0.5,0,0],[0.75,0,0],[1,0,0],[0,1,0],[0.25,1,0],[0.5,1,0],[0.75,1,0],[1,1,0],[0,0.25,0],[0,0.5,0],[0,0.75,0],[1,0.25,0],[1,0.5,0],[1,0.75,0]];outlineConnect=0;fontColor=#232F3E;gradientColor=#60A337;gradientDirection=north;fillColor=#277116;strokeColor=#ffffff;dashed=0;verticalLabelPosition=bottom;verticalAlign=top;align=center;html=1;fontSize=12;fontStyle=0;aspect=fixed;shape=mxgraph.aws4.resourceIcon;resIcon=mxgraph.aws4.s3;" parent="1" vertex="1">
                    <mxGeometry x="-58" y="398" width="78" height="78" as="geometry"/>
                </mxCell>
                <mxCell id="21" style="edgeStyle=none;html=1;fontColor=#007FFF;dashed=1;" parent="1" source="3" target="2" edge="1">
                    <mxGeometry relative="1" as="geometry"/>
                </mxCell>
                <mxCell id="39" value="WHOLE / PASSED HOURS&lt;br&gt;NOT YET COMPLETED" style="edgeLabel;html=1;align=center;verticalAlign=middle;resizable=0;points=[];fontColor=#000000;" parent="21" vertex="1" connectable="0">
                    <mxGeometry x="-0.2062" y="-1" relative="1" as="geometry">
                        <mxPoint x="103" y="-145" as="offset"/>
                    </mxGeometry>
                </mxCell>
                <mxCell id="22" value="&lt;br&gt;" style="edgeStyle=orthogonalEdgeStyle;html=1;fontColor=#007FFF;" parent="1" source="3" target="16" edge="1">
                    <mxGeometry relative="1" as="geometry">
                        <Array as="points">
                            <mxPoint x="204" y="124"/>
                        </Array>
                    </mxGeometry>
                </mxCell>
                <mxCell id="24" style="edgeStyle=orthogonalEdgeStyle;html=1;entryX=0;entryY=0.5;entryDx=0;entryDy=0;entryPerimeter=0;fontColor=#007FFF;strokeWidth=3;" parent="1" source="3" target="5" edge="1">
                    <mxGeometry relative="1" as="geometry"/>
                </mxCell>
                <mxCell id="25" style="edgeStyle=orthogonalEdgeStyle;html=1;fontColor=#007FFF;" parent="1" source="3" target="6" edge="1">
                    <mxGeometry relative="1" as="geometry"/>
                </mxCell>
                <mxCell id="26" style="edgeStyle=orthogonalEdgeStyle;html=1;entryX=0;entryY=0.5;entryDx=0;entryDy=0;entryPerimeter=0;fontColor=#007FFF;" parent="1" source="3" target="7" edge="1">
                    <mxGeometry relative="1" as="geometry"/>
                </mxCell>
                <mxCell id="3" value="" style="sketch=0;html=1;aspect=fixed;strokeColor=none;shadow=0;align=center;verticalAlign=top;fillColor=#3B8DF1;shape=mxgraph.gcp2.gear_load" parent="1" vertex="1">
                    <mxGeometry x="154" y="391" width="100" height="92" as="geometry"/>
                </mxCell>
                <mxCell id="11" style="edgeStyle=none;html=1;fontColor=#007FFF;strokeWidth=3;" parent="1" source="5" target="9" edge="1">
                    <mxGeometry relative="1" as="geometry"/>
                </mxCell>
                <mxCell id="5" value="&lt;b&gt;INGEST&lt;br&gt;&lt;font color=&quot;#007fff&quot;&gt;org-A&lt;/font&gt;&lt;br&gt;&lt;/b&gt;" style="shape=cylinder3;whiteSpace=wrap;html=1;boundedLbl=1;backgroundOutline=1;size=15;" parent="1" vertex="1">
                    <mxGeometry x="386" y="264" width="179" height="80" as="geometry"/>
                </mxCell>
                <mxCell id="15" style="edgeStyle=none;html=1;fontColor=#007FFF;" parent="1" source="6" target="12" edge="1">
                    <mxGeometry relative="1" as="geometry"/>
                </mxCell>
                <mxCell id="6" value="&lt;b&gt;INGEST&lt;br&gt;&lt;/b&gt;&lt;b style=&quot;border-color: var(--border-color);&quot;&gt;&lt;font style=&quot;border-color: var(--border-color);&quot; color=&quot;#007fff&quot;&gt;org-B&lt;/font&gt;&lt;/b&gt;&lt;b&gt;&lt;br&gt;&lt;/b&gt;" style="shape=cylinder3;whiteSpace=wrap;html=1;boundedLbl=1;backgroundOutline=1;size=15;" parent="1" vertex="1">
                    <mxGeometry x="384" y="397" width="179" height="80" as="geometry"/>
                </mxCell>
                <mxCell id="14" style="edgeStyle=none;html=1;fontColor=#007FFF;" parent="1" source="7" target="13" edge="1">
                    <mxGeometry relative="1" as="geometry"/>
                </mxCell>
                <mxCell id="7" value="&lt;b&gt;INGEST&lt;br&gt;&lt;/b&gt;&lt;b style=&quot;border-color: var(--border-color);&quot;&gt;&lt;font style=&quot;border-color: var(--border-color);&quot; color=&quot;#007fff&quot;&gt;org-C&lt;/font&gt;&lt;/b&gt;&lt;b&gt;&lt;br&gt;&lt;/b&gt;" style="shape=cylinder3;whiteSpace=wrap;html=1;boundedLbl=1;backgroundOutline=1;size=15;" parent="1" vertex="1">
                    <mxGeometry x="381" y="529" width="179" height="80" as="geometry"/>
                </mxCell>
                <mxCell id="29" style="edgeStyle=orthogonalEdgeStyle;html=1;fontColor=#000000;fontStyle=1;strokeWidth=3;" parent="1" source="9" target="28" edge="1">
                    <mxGeometry relative="1" as="geometry">
                        <Array as="points">
                            <mxPoint x="901" y="304"/>
                            <mxPoint x="901" y="200"/>
                        </Array>
                    </mxGeometry>
                </mxCell>
                <mxCell id="37" style="edgeStyle=orthogonalEdgeStyle;html=1;dashed=1;fontColor=#000000;" parent="1" source="9" target="30" edge="1">
                    <mxGeometry relative="1" as="geometry"/>
                </mxCell>
                <mxCell id="38" style="edgeStyle=orthogonalEdgeStyle;html=1;entryX=0;entryY=0;entryDx=0;entryDy=52.5;entryPerimeter=0;dashed=1;fontColor=#000000;" parent="1" source="9" target="31" edge="1">
                    <mxGeometry relative="1" as="geometry"/>
                </mxCell>
                <mxCell id="59" style="edgeStyle=orthogonalEdgeStyle;html=1;entryX=0.5;entryY=1;entryDx=0;entryDy=0;entryPerimeter=0;strokeWidth=3;fontColor=#000000;" parent="1" source="9" target="57" edge="1">
                    <mxGeometry relative="1" as="geometry"/>
                </mxCell>
                <mxCell id="9" value="" style="sketch=0;html=1;aspect=fixed;strokeColor=none;shadow=0;align=center;verticalAlign=top;fillColor=#3B8DF1;shape=mxgraph.gcp2.gear_load" parent="1" vertex="1">
                    <mxGeometry x="708" y="258" width="100" height="92" as="geometry"/>
                </mxCell>
                <mxCell id="12" value="" style="sketch=0;html=1;aspect=fixed;strokeColor=none;shadow=0;align=center;verticalAlign=top;fillColor=#3B8DF1;shape=mxgraph.gcp2.gear_load" parent="1" vertex="1">
                    <mxGeometry x="708" y="391" width="100" height="92" as="geometry"/>
                </mxCell>
                <mxCell id="13" value="" style="sketch=0;html=1;aspect=fixed;strokeColor=none;shadow=0;align=center;verticalAlign=top;fillColor=#3B8DF1;shape=mxgraph.gcp2.gear_load" parent="1" vertex="1">
                    <mxGeometry x="708" y="523" width="100" height="92" as="geometry"/>
                </mxCell>
                <mxCell id="16" value="" style="sketch=0;points=[[0,0,0],[0.25,0,0],[0.5,0,0],[0.75,0,0],[1,0,0],[0,1,0],[0.25,1,0],[0.5,1,0],[0.75,1,0],[1,1,0],[0,0.25,0],[0,0.5,0],[0,0.75,0],[1,0.25,0],[1,0.5,0],[1,0.75,0]];outlineConnect=0;fontColor=#232F3E;gradientColor=#4D72F3;gradientDirection=north;fillColor=#3334B9;strokeColor=#ffffff;dashed=0;verticalLabelPosition=bottom;verticalAlign=top;align=center;html=1;fontSize=12;fontStyle=0;aspect=fixed;shape=mxgraph.aws4.resourceIcon;resIcon=mxgraph.aws4.dynamodb;" parent="1" vertex="1">
                    <mxGeometry x="-54" y="79" width="78" height="78" as="geometry"/>
                </mxCell>
                <UserObject label="https://medium.com/develop-and-deploy-a-complex-serverless-web-app/use-s3-trigger-to-create-a-dynamodb-entry-when-uploading-images-to-s3-part-9-4d7489a4584b" link="https://medium.com/develop-and-deploy-a-complex-serverless-web-app/use-s3-trigger-to-create-a-dynamodb-entry-when-uploading-images-to-s3-part-9-4d7489a4584b" id="17">
                    <mxCell style="text;whiteSpace=wrap;html=1;fontColor=#007FFF;" parent="1" vertex="1">
                        <mxGeometry x="-83.999090909091" y="740.000909090909" width="550" height="51" as="geometry"/>
                    </mxCell>
                </UserObject>
                <mxCell id="20" style="edgeStyle=none;html=1;fontColor=#007FFF;" parent="1" source="18" target="16" edge="1">
                    <mxGeometry relative="1" as="geometry"/>
                </mxCell>
                <mxCell id="18" value="" style="sketch=0;outlineConnect=0;fontColor=#232F3E;gradientColor=none;fillColor=#B0084D;strokeColor=none;dashed=0;verticalLabelPosition=bottom;verticalAlign=top;align=center;html=1;fontSize=12;fontStyle=0;aspect=fixed;pointerEvents=1;shape=mxgraph.aws4.eventbridge_default_event_bus_resource;" parent="1" vertex="1">
                    <mxGeometry x="-56" y="255" width="78" height="53" as="geometry"/>
                </mxCell>
                <mxCell id="23" value="" style="html=1;verticalLabelPosition=bottom;align=center;labelBackgroundColor=#ffffff;verticalAlign=top;strokeWidth=2;strokeColor=#0080F0;shadow=0;dashed=0;shape=mxgraph.ios7.icons.alarm_clock;fontColor=#007FFF;" parent="1" vertex="1">
                    <mxGeometry x="186.5" y="523" width="27" height="30" as="geometry"/>
                </mxCell>
                <mxCell id="27" value="&lt;font color=&quot;#000000&quot;&gt;SORT-UPLOADER&lt;/font&gt;" style="text;html=1;align=center;verticalAlign=middle;resizable=0;points=[];autosize=1;strokeColor=none;fillColor=none;fontColor=#007FFF;" parent="1" vertex="1">
                    <mxGeometry x="140" y="493" width="120" height="26" as="geometry"/>
                </mxCell>
                <mxCell id="35" style="edgeStyle=orthogonalEdgeStyle;html=1;entryX=0;entryY=0.5;entryDx=0;entryDy=0;entryPerimeter=0;fontColor=#000000;dashed=1;strokeWidth=3;" parent="1" source="28" target="32" edge="1">
                    <mxGeometry relative="1" as="geometry"/>
                </mxCell>
                <mxCell id="36" value="ONLY WHEN HOUR IS COMPLETE" style="edgeLabel;html=1;align=center;verticalAlign=middle;resizable=0;points=[];fontColor=#000000;" parent="35" vertex="1" connectable="0">
                    <mxGeometry x="-0.251" y="1" relative="1" as="geometry">
                        <mxPoint x="43" y="-37" as="offset"/>
                    </mxGeometry>
                </mxCell>
                <mxCell id="28" value="&lt;b&gt;STAGE_HR_{CURRENT}&lt;br&gt;&lt;font color=&quot;#007fff&quot;&gt;org-A&lt;/font&gt;&lt;br&gt;&lt;/b&gt;" style="shape=cylinder3;whiteSpace=wrap;html=1;boundedLbl=1;backgroundOutline=1;size=15;" parent="1" vertex="1">
                    <mxGeometry x="990" y="160" width="179" height="80" as="geometry"/>
                </mxCell>
                <mxCell id="33" style="edgeStyle=orthogonalEdgeStyle;html=1;fontColor=#000000;" parent="1" source="30" target="32" edge="1">
                    <mxGeometry relative="1" as="geometry"/>
                </mxCell>
                <mxCell id="30" value="&lt;b style=&quot;border-color: var(--border-color);&quot;&gt;STAGE_HR_2&lt;/b&gt;&lt;b&gt;&lt;br&gt;&lt;font color=&quot;#007fff&quot;&gt;org-A&lt;/font&gt;&lt;br&gt;&lt;/b&gt;" style="shape=cylinder3;whiteSpace=wrap;html=1;boundedLbl=1;backgroundOutline=1;size=15;" parent="1" vertex="1">
                    <mxGeometry x="990" y="265" width="179" height="80" as="geometry"/>
                </mxCell>
                <mxCell id="34" style="edgeStyle=orthogonalEdgeStyle;html=1;entryX=0;entryY=0.5;entryDx=0;entryDy=0;entryPerimeter=0;fontColor=#000000;" parent="1" source="31" target="32" edge="1">
                    <mxGeometry relative="1" as="geometry"/>
                </mxCell>
                <mxCell id="31" value="&lt;b style=&quot;border-color: var(--border-color);&quot;&gt;STAGE_HR_1&lt;/b&gt;&lt;b&gt;&lt;br&gt;&lt;font color=&quot;#007fff&quot;&gt;org-A&lt;/font&gt;&lt;br&gt;&lt;/b&gt;" style="shape=cylinder3;whiteSpace=wrap;html=1;boundedLbl=1;backgroundOutline=1;size=15;" parent="1" vertex="1">
                    <mxGeometry x="990" y="379" width="179" height="80" as="geometry"/>
                </mxCell>
                <mxCell id="32" value="&lt;b style=&quot;border-color: var(--border-color);&quot;&gt;ORG_PORMETHEUS_STAGING&lt;br&gt;&lt;/b&gt;&lt;b&gt;VIEW&lt;br&gt;&lt;/b&gt;" style="shape=cylinder3;whiteSpace=wrap;html=1;boundedLbl=1;backgroundOutline=1;size=15;" parent="1" vertex="1">
                    <mxGeometry x="1288" y="265" width="179" height="80" as="geometry"/>
                </mxCell>
                <mxCell id="45" style="edgeStyle=orthogonalEdgeStyle;html=1;dashed=1;fontColor=#000000;strokeWidth=3;" parent="1" source="44" target="32" edge="1">
                    <mxGeometry relative="1" as="geometry"/>
                </mxCell>
                <mxCell id="54" style="edgeStyle=orthogonalEdgeStyle;html=1;entryX=0.004;entryY=0.571;entryDx=0;entryDy=0;entryPerimeter=0;fontColor=#000000;strokeWidth=3;" parent="1" source="44" target="48" edge="1">
                    <mxGeometry relative="1" as="geometry"/>
                </mxCell>
                <mxCell id="60" style="edgeStyle=orthogonalEdgeStyle;html=1;entryX=1;entryY=0.5;entryDx=0;entryDy=0;entryPerimeter=0;strokeWidth=3;fontColor=#000000;" parent="1" source="44" target="57" edge="1">
                    <mxGeometry relative="1" as="geometry">
                        <Array as="points">
                            <mxPoint x="1670" y="32"/>
                        </Array>
                    </mxGeometry>
                </mxCell>
                <mxCell id="61" value="GET READY HOURS (OR REBUILD HOURS)" style="edgeLabel;html=1;align=center;verticalAlign=middle;resizable=0;points=[];fontColor=#000000;" parent="60" vertex="1" connectable="0">
                    <mxGeometry x="-0.2829" y="5" relative="1" as="geometry">
                        <mxPoint x="-33" y="-27" as="offset"/>
                    </mxGeometry>
                </mxCell>
                <mxCell id="44" value="" style="sketch=0;html=1;aspect=fixed;strokeColor=none;shadow=0;align=center;verticalAlign=top;fillColor=#3B8DF1;shape=mxgraph.gcp2.gear_load" parent="1" vertex="1">
                    <mxGeometry x="1620" y="259" width="100" height="92" as="geometry"/>
                </mxCell>
                <mxCell id="46" style="edgeStyle=orthogonalEdgeStyle;html=1;entryX=0;entryY=0.5;entryDx=0;entryDy=0;entryPerimeter=0;fontColor=#000000;dashed=1;strokeWidth=3;" parent="1" source="48" target="53" edge="1">
                    <mxGeometry relative="1" as="geometry"/>
                </mxCell>
                <mxCell id="47" value="ONLY WHEN HOUR IS COMPLETE" style="edgeLabel;html=1;align=center;verticalAlign=middle;resizable=0;points=[];fontColor=#000000;" parent="46" vertex="1" connectable="0">
                    <mxGeometry x="-0.251" y="1" relative="1" as="geometry">
                        <mxPoint x="43" y="-37" as="offset"/>
                    </mxGeometry>
                </mxCell>
                <mxCell id="48" value="&lt;b style=&quot;border-color: var(--border-color);&quot;&gt;ORG_SUMMARY&lt;/b&gt;&lt;b&gt;_HR_{CUR}&lt;br&gt;&lt;font color=&quot;#007fff&quot;&gt;org-A&lt;/font&gt;&lt;br&gt;&lt;/b&gt;" style="shape=cylinder3;whiteSpace=wrap;html=1;boundedLbl=1;backgroundOutline=1;size=15;" parent="1" vertex="1">
                    <mxGeometry x="1849" y="160" width="179" height="80" as="geometry"/>
                </mxCell>
                <mxCell id="49" style="edgeStyle=orthogonalEdgeStyle;html=1;fontColor=#000000;" parent="1" source="50" target="53" edge="1">
                    <mxGeometry relative="1" as="geometry"/>
                </mxCell>
                <mxCell id="50" value="&lt;b style=&quot;border-color: var(--border-color);&quot;&gt;ORG_SUMMARY_HR_2&lt;/b&gt;&lt;b&gt;&lt;br&gt;&lt;font color=&quot;#007fff&quot;&gt;org-A&lt;/font&gt;&lt;br&gt;&lt;/b&gt;" style="shape=cylinder3;whiteSpace=wrap;html=1;boundedLbl=1;backgroundOutline=1;size=15;" parent="1" vertex="1">
                    <mxGeometry x="1849" y="265" width="179" height="80" as="geometry"/>
                </mxCell>
                <mxCell id="51" style="edgeStyle=orthogonalEdgeStyle;html=1;entryX=0;entryY=0.5;entryDx=0;entryDy=0;entryPerimeter=0;fontColor=#000000;" parent="1" source="52" target="53" edge="1">
                    <mxGeometry relative="1" as="geometry"/>
                </mxCell>
                <mxCell id="52" value="&lt;b style=&quot;border-color: var(--border-color);&quot;&gt;&lt;b style=&quot;border-color: var(--border-color);&quot;&gt;ORG_SUMMARY&lt;/b&gt;_HR_1&lt;/b&gt;&lt;b&gt;&lt;br&gt;&lt;font color=&quot;#007fff&quot;&gt;org-A&lt;/font&gt;&lt;br&gt;&lt;/b&gt;" style="shape=cylinder3;whiteSpace=wrap;html=1;boundedLbl=1;backgroundOutline=1;size=15;" parent="1" vertex="1">
                    <mxGeometry x="1849" y="379" width="179" height="80" as="geometry"/>
                </mxCell>
                <mxCell id="53" value="&lt;b style=&quot;border-color: var(--border-color);&quot;&gt;ORG_SUMMARY&lt;br&gt;&lt;/b&gt;&lt;b&gt;VIEW&lt;br&gt;&lt;/b&gt;" style="shape=cylinder3;whiteSpace=wrap;html=1;boundedLbl=1;backgroundOutline=1;size=15;" parent="1" vertex="1">
                    <mxGeometry x="2148" y="265" width="179" height="80" as="geometry"/>
                </mxCell>
                <mxCell id="55" value="Time dictates when a set of cluster data (based on the hour) is ready to process.&lt;br&gt;As time passes, the next HOUR will build.&amp;nbsp;&lt;br&gt;&lt;br&gt;&lt;b&gt;&lt;i&gt;Within the metrics files, iti s possible to have a file in HOUR 12 which has the last scrape metric for HOUR 11&lt;br&gt;&lt;br&gt;&lt;/i&gt;&lt;/b&gt;" style="text;html=1;align=center;verticalAlign=middle;resizable=0;points=[];autosize=1;strokeColor=none;fillColor=none;fontColor=#000000;" parent="1" vertex="1">
                    <mxGeometry x="-117" y="608" width="636" height="84" as="geometry"/>
                </mxCell>
                <mxCell id="57" value="" style="sketch=0;points=[[0,0,0],[0.25,0,0],[0.5,0,0],[0.75,0,0],[1,0,0],[0,1,0],[0.25,1,0],[0.5,1,0],[0.75,1,0],[1,1,0],[0,0.25,0],[0,0.5,0],[0,0.75,0],[1,0.25,0],[1,0.5,0],[1,0.75,0]];outlineConnect=0;fontColor=#232F3E;gradientColor=#4D72F3;gradientDirection=north;fillColor=#3334B9;strokeColor=#ffffff;dashed=0;verticalLabelPosition=bottom;verticalAlign=top;align=center;html=1;fontSize=12;fontStyle=0;aspect=fixed;shape=mxgraph.aws4.resourceIcon;resIcon=mxgraph.aws4.dynamodb;" parent="1" vertex="1">
                    <mxGeometry x="719" y="-7" width="78" height="78" as="geometry"/>
                </mxCell>
                <mxCell id="58" value="&lt;span style=&quot;color: rgb(35, 47, 62); font-family: Helvetica; font-size: 12px; font-style: normal; font-variant-ligatures: normal; font-variant-caps: normal; letter-spacing: normal; orphans: 2; text-indent: 0px; text-transform: none; widows: 2; word-spacing: 0px; -webkit-text-stroke-width: 0px; background-color: rgb(255, 255, 255); text-decoration-thickness: initial; text-decoration-style: initial; text-decoration-color: initial; float: none; display: inline !important;&quot;&gt;&lt;b&gt;CLUSTER-HOUR&lt;br&gt;SEGMENT STATUS TABLE&lt;/b&gt;&lt;/span&gt;" style="text;whiteSpace=wrap;html=1;fontColor=#000000;align=center;" parent="1" vertex="1">
                    <mxGeometry x="676.9981818181811" y="-46.27272727272748" width="176" height="36" as="geometry"/>
                </mxCell>
                <mxCell id="62" value="&lt;br&gt;&amp;nbsp; &amp;nbsp;&lt;b&gt;DESIGN ADVANTAGE:&lt;br&gt;&lt;br&gt;&amp;nbsp; &amp;nbsp;1. Easy to archive hours&lt;br&gt;&amp;nbsp; &amp;nbsp;2. Easy to deal with only one hour at a time&lt;br&gt;&amp;nbsp; &amp;nbsp;3. Rebuilds are easy&lt;br&gt;&amp;nbsp; &amp;nbsp;4. Data management (ETL) non-locking and done w/o affecting other data access&lt;br&gt;&amp;nbsp; &amp;nbsp;5. View reformating is easy&lt;br&gt;&amp;nbsp; &amp;nbsp;6. Allows for, schema changes over time w/o REBUILDING all hours&lt;br&gt;&lt;/b&gt;" style="rounded=1;whiteSpace=wrap;html=1;align=left;verticalAlign=top;fillColor=#fff2cc;strokeColor=#d6b656;" parent="1" vertex="1">
                    <mxGeometry x="1312" y="712" width="640" height="158" as="geometry"/>
                </mxCell>
                <mxCell id="63" value="&lt;b&gt;FLATTEN ETL&lt;/b&gt;" style="text;html=1;align=center;verticalAlign=middle;resizable=0;points=[];autosize=1;strokeColor=none;fillColor=none;fontColor=#000000;" parent="1" vertex="1">
                    <mxGeometry x="709" y="629" width="98" height="26" as="geometry"/>
                </mxCell>
                <mxCell id="64" value="" style="html=1;verticalLabelPosition=bottom;align=center;labelBackgroundColor=#ffffff;verticalAlign=top;strokeWidth=2;strokeColor=#0080F0;shadow=0;dashed=0;shape=mxgraph.ios7.icons.alarm_clock;fontColor=#007FFF;" parent="1" vertex="1">
                    <mxGeometry x="1655" y="405" width="27" height="30" as="geometry"/>
                </mxCell>
                <mxCell id="65" value="&lt;b&gt;ORG SUMMARY&amp;nbsp; ETL&lt;/b&gt;" style="text;html=1;align=center;verticalAlign=middle;resizable=0;points=[];autosize=1;strokeColor=none;fillColor=none;fontColor=#000000;" parent="1" vertex="1">
                    <mxGeometry x="1601" y="379" width="140" height="26" as="geometry"/>
                </mxCell>
            </root>
        </mxGraphModel>
    </diagram>
</mxfile>